<svg width="51" height="36" viewBox="0 0 51 36" fill="none" xmlns="http://www.w3.org/2000/svg">
<path d="M8.26 12.92C9.26 10.86 11.73 9.31 14 9.31H40.21V7.65C40.21 6.29 39.1 5.17 37.75 5.17H26.93V3.73C26.93 1.67 25.28 0 23.25 0H16.96C15.98 0 15.05 0.39 14.35 1.1C13.65 1.8 13.27 2.73 13.27 3.73V5.17H2.46C1.1 5.17 0 6.29 0 7.65V29.82L8.26 12.92ZM15.73 3.73C15.73 3.4 15.86 3.09 16.09 2.85C16.32 2.61 16.63 2.49 16.96 2.49H23.25C23.93 2.49 24.48 3.04 24.48 3.73V5.17H15.73V3.73ZM41.18 33.43C40.59 34.65 38.99 35.65 37.64 35.65H2.34C0.99 35.65 0.37 34.65 0.97 33.43L10.46 14.01C11.06 12.79 12.65 11.79 14 11.79H49.3C50.65 11.79 51.27 12.79 50.67 14.01L41.18 33.43Z" fill="#C7B299"/>
</svg>
