<svg width="44" height="44" viewBox="0 0 44 44" fill="none" xmlns="http://www.w3.org/2000/svg">
<path d="M43.57 21.78C43.57 20.16 42.4 18.43 40.96 17.92C39.52 17.41 38.13 16.17 37.72 15.18C37.32 14.2 37.42 12.33 38.08 10.95C38.73 9.57 38.33 7.52 37.19 6.37C36.04 5.23 34 4.83 32.62 5.49C31.24 6.14 29.37 6.25 28.39 5.84C27.4 5.44 26.16 4.04 25.65 2.6C25.13 1.16 23.4 0 21.78 0C20.16 0 18.43 1.16 17.92 2.6C17.41 4.04 16.16 5.44 15.18 5.84C14.2 6.25 12.33 6.14 10.95 5.49C9.57 4.83 7.52 5.23 6.38 6.37C5.23 7.52 4.83 9.57 5.49 10.95C6.15 12.33 6.25 14.2 5.84 15.18C5.44 16.16 4.05 17.41 2.61 17.92C1.17 18.43 0 20.16 0 21.78C0 23.4 1.17 25.13 2.61 25.64C4.05 26.15 5.44 27.4 5.85 28.38C6.25 29.36 6.15 31.23 5.49 32.61C4.83 33.99 5.23 36.04 6.38 37.19C7.52 38.33 9.57 38.73 10.95 38.07C12.33 37.42 14.2 37.31 15.18 37.72C16.16 38.13 17.41 39.52 17.92 40.96C18.43 42.4 20.16 43.56 21.78 43.56C23.4 43.56 25.13 42.4 25.65 40.96C26.16 39.52 27.4 38.13 28.38 37.72C29.37 37.31 31.24 37.42 32.62 38.07C34 38.73 36.04 38.33 37.19 37.19C38.33 36.04 38.73 33.99 38.08 32.61C37.42 31.23 37.31 29.36 37.72 28.38C38.12 27.4 39.52 26.15 40.96 25.64C42.4 25.13 43.57 23.4 43.57 21.78ZM21.78 29.77C17.36 29.77 13.79 26.2 13.79 21.79C13.79 17.37 17.36 13.8 21.78 13.8C26.19 13.8 29.77 17.37 29.77 21.79C29.77 26.2 26.19 29.77 21.78 29.77Z" fill="#C7B299"/>
</svg>
